<?xml version="1.0" encoding="utf-8"?><!DOCTYPE svg PUBLIC "-//W3C//DTD SVG 1.1//EN" "http://www.w3.org/Graphics/SVG/1.1/DTD/svg11.dtd"><svg width="655" height="572" viewBox="0 0 655 572" xmlns="http://www.w3.org/2000/svg" xmlns:xlink="http://www.w3.org/1999/xlink"><svg viewBox="0 0 128 128" width="128" height="128" id="Behance" x="256" y="443.53" xmlns="http://www.w3.org/2000/svg"><path fill="#262626" d="M0 0h128v128H0z"/><path fill-rule="evenodd" clip-rule="evenodd" fill="#FFF" d="M48.573 66.47h-11.47v12.102h11.29c3.881 0 6.956-1.235 6.956-5.81 0-4.487-2.59-6.292-6.776-6.292zM47.1 48.855h-9.996V59.15H47.85c3.404 0 5.964-1.534 5.964-5.236 0-4.217-3.224-5.06-6.715-5.06zM65.404 72.94c0 8.946-7.678 12.768-15.686 12.768H28.16V41.417h20.928c8.456 0 14.208 2.982 14.208 11.2 0 4.307-2.195 7.317-6.048 9.182 5.415 1.537 8.156 5.665 8.156 11.142zM75.944 44.4h17.822v5.931H75.943V44.4zm7.977 15.174c-5.6 0-7.228 3.133-7.347 5.57h14.393c-.813-4.425-2.739-5.57-7.046-5.57zm-7.347 11.324c.24 5.538 2.982 9.091 7.89 9.091 3.552 0 6.805-2.892 7.379-4.877h7.766c-2.468 7.53-8.162 11.472-15.447 11.472-10.144 0-16.531-6.897-16.531-16.772 0-9.546 6.773-16.832 16.531-16.832 10.963 0 16.26 8.1 15.627 17.918H76.574z"/></svg><svg viewBox="0 0 128 128" width="128" height="128" id="Deviantart" x="526.4" y="256" xmlns="http://www.w3.org/2000/svg"><path fill="#262626" d="M0 0h128v128H0z"/><path fill="#FFF" d="M86.184 41.193V28.16H73.15l-1.3 1.312-6.15 11.72-1.934 1.305h-21.95v17.898h12.067l1.075 1.3-13.142 25.112V99.84H54.85l1.3-1.312 6.15-11.72 1.934-1.304h21.95V67.606H74.117l-1.074-1.31z"/></svg><svg viewBox="0 0 128 128" width="128" height="128" id="Dribbble" x="142.4" xmlns="http://www.w3.org/2000/svg"><path fill="#262626" d="M0 0h128v128H0z"/><path fill="#FFF" d="M80.906 88.696c-1.226-7.196-3.224-14.034-5.644-20.395 5.224-.656 11.261-.51 18.25.778-1.406 8.12-6.065 15.109-12.606 19.617zm-35.067-.924c5.052-7.616 12.102-15.142 23.537-18.307 2.688 6.866 4.866 14.336 6.037 22.221A30.239 30.239 0 0 1 64 93.926c-6.837 0-13.137-2.301-18.16-6.154zM34.074 64v-.958h.179c10.663 0 21.269-.716 30.76-3.494.69 1.433 1.412 2.898 2.061 4.421-12.482 3.676-20.277 11.886-25.592 19.71-4.63-5.253-7.408-12.153-7.408-19.679zm17.052-27.031a147.203 147.203 0 0 1 11.082 17.203c-8.422 2.302-17.83 2.929-27.328 2.957 2.095-8.898 8.187-16.276 16.246-20.16zm32.26 4.242c-4.21 5.138-9.496 8.66-15.505 11.051-3.819-7.109-7.795-13.022-10.925-17.354A30.508 30.508 0 0 1 64 34.074c7.41 0 14.157 2.688 19.387 7.137zm4.123 4.3a29.94 29.94 0 0 1 6.418 17.652c-8.064-1.403-14.992-1.465-20.967-.507a149.181 149.181 0 0 0-2.357-5.079c6.416-2.627 12.185-6.48 16.906-12.065zM64 28.162C44.199 28.16 28.16 44.197 28.16 64 28.16 83.8 44.2 99.84 64 99.84c19.802 0 35.84-16.04 35.84-35.84 0-19.802-16.038-35.84-35.84-35.84z"/></svg><svg viewBox="0 0 128 128" width="128" height="128" id="FacebookBW" x="270.4" xmlns="http://www.w3.org/2000/svg"><path fill="#262626" d="M0 0h128v128H0z"/><path fill="#FFF" d="M95.884 28.16H32.116a3.955 3.955 0 0 0-3.956 3.956v63.768a3.956 3.956 0 0 0 3.956 3.956h34.33V72.082h-9.34V61.264h9.34v-7.978c0-9.259 5.655-14.3 13.914-14.3 3.956 0 7.356.295 8.347.427v9.675l-5.727.002c-4.493 0-5.362 2.135-5.362 5.267v6.907H88.33l-1.394 10.818h-9.318V99.84h18.266a3.956 3.956 0 0 0 3.956-3.956V32.116a3.956 3.956 0 0 0-3.956-3.956z"/></svg><svg viewBox="0 0 128 128" width="128" height="128" id="Github" y="187.53" xmlns="http://www.w3.org/2000/svg"><path fill="#262626" d="M0 0h128v128H0z"/><g fill="#FFF"><path fill-rule="evenodd" clip-rule="evenodd" d="M64 29.045c-19.791 0-35.84 16.045-35.84 35.84 0 15.835 10.27 29.27 24.51 34.009 1.79.33 2.45-.779 2.45-1.725 0-.855-.034-3.678-.05-6.673-9.97 2.168-12.075-4.228-12.075-4.228-1.63-4.143-3.98-5.245-3.98-5.245-3.251-2.224.247-2.178.247-2.178 3.597.253 5.493 3.694 5.493 3.694 3.196 5.479 8.385 3.895 10.43 2.979.322-2.317 1.25-3.898 2.275-4.793-7.96-.906-16.33-3.979-16.33-17.712 0-3.913 1.401-7.11 3.694-9.62-.372-.903-1.6-4.548.348-9.485 0 0 3.009-.963 9.857 3.674 2.86-.794 5.926-1.192 8.971-1.206 3.046.014 6.114.412 8.978 1.206 6.841-4.637 9.847-3.674 9.847-3.674 1.95 4.937.724 8.582.352 9.485 2.298 2.51 3.688 5.707 3.688 9.62 0 13.766-8.385 16.796-16.365 17.684 1.285 1.112 2.43 3.293 2.43 6.637 0 4.795-.04 8.654-.04 9.835 0 .954.645 2.071 2.462 1.72C89.584 94.145 99.84 80.715 99.84 64.885c0-19.795-16.047-35.84-35.841-35.84z"/><path d="M41.735 80.503c-.079.179-.359.231-.615.11-.26-.117-.405-.36-.321-.539.077-.183.357-.234.617-.111.26.117.41.361.32.54zm-.441-.327M43.187 82.123c-.171.158-.505.084-.732-.166-.235-.25-.278-.584-.105-.745.176-.158.5-.084.735.166.234.253.28.584.102.745zm-.342-.367M44.6 84.186c-.22.154-.58.01-.801-.309-.22-.318-.22-.701.005-.854.222-.153.576-.015.801.301.22.324.22.706-.005.862zm0 0M46.535 86.18c-.196.217-.614.159-.92-.137-.314-.288-.401-.7-.205-.916.2-.217.621-.155.929.139.311.288.406.7.196.915zm0 0M49.206 87.339c-.087.28-.49.407-.896.288-.405-.123-.67-.451-.588-.734.084-.284.489-.416.898-.288.405.122.67.448.586.734zm0 0M52.14 87.553c.01.296-.334.54-.761.547-.428.01-.775-.23-.78-.522 0-.298.337-.54.765-.548.426-.008.776.23.776.523zm0 0M54.87 87.089c.05.288-.246.585-.669.663-.417.076-.802-.102-.854-.388-.052-.296.25-.592.665-.669.423-.072.803.1.857.394zm0 0"/></g></svg><svg viewBox="0 0 128 128" width="128" height="128" id="Google+" x="128" y="187.53" xmlns="http://www.w3.org/2000/svg"><path fill="#262626" d="M0 0h128v128H0z"/><g fill="#FFF"><path d="M28.174 64.03c-.447-11.743 9.84-22.594 21.594-22.736 5.99-.511 11.818 1.814 16.355 5.611-1.86 2.043-3.756 4.066-5.774 5.959-3.993-2.425-8.798-4.273-13.462-2.633-7.528 2.143-12.08 11.026-9.3 18.388 2.308 7.686 11.66 11.904 18.987 8.674 3.797-1.357 6.294-4.86 7.392-8.621-4.349-.086-8.7-.033-13.048-.154-.008-2.587-.022-5.163-.008-7.75 7.251-.012 14.516-.033 21.779.034.444 6.337-.49 13.123-4.61 18.21-5.644 7.263-16.072 9.394-24.553 6.547-9.005-2.957-15.548-12.026-15.352-21.53M86.823 54.244h6.47c.01 2.164.031 4.337.042 6.502 2.165.021 4.34.03 6.505.044v6.48l-6.505.03a1788.73 1788.73 0 0 0-.042 6.514c-2.164-.01-4.33 0-6.482 0-.022-2.174-.022-4.34-.042-6.501-2.163-.022-4.34-.034-6.5-.044V60.79c2.16-.014 4.324-.023 6.5-.044.011-2.165.033-4.338.054-6.502"/></g></svg><svg viewBox="0 0 128 128" width="128" height="128" id="InstagramBW" x="256" y="187.53" xmlns="http://www.w3.org/2000/svg"><path fill="#262626" d="M0 0h128v128H0z"/><path fill-rule="evenodd" clip-rule="evenodd" fill="#FFF" d="M91.57 58.483h-6.239c.454 1.765.724 3.609.724 5.516 0 12.183-9.875 22.056-22.055 22.056s-22.055-9.873-22.055-22.057c0-1.906.27-3.75.725-5.515h-6.24V88.81a2.758 2.758 0 0 0 2.759 2.755h49.622a2.757 2.757 0 0 0 2.76-2.755V58.483zm0-19.297a2.758 2.758 0 0 0-2.76-2.757h-8.268a2.757 2.757 0 0 0-2.757 2.757v8.272a2.757 2.757 0 0 0 2.757 2.757h8.268a2.758 2.758 0 0 0 2.76-2.757v-8.272zM64 50.215c-7.614 0-13.785 6.17-13.785 13.783 0 7.613 6.171 13.787 13.784 13.787 7.614 0 13.786-6.174 13.786-13.787S71.613 50.215 64 50.215M91.57 99.84H36.43c-4.567 0-8.27-3.704-8.27-8.274V36.43a8.27 8.27 0 0 1 8.27-8.269h55.14a8.268 8.268 0 0 1 8.27 8.27v55.136a8.27 8.27 0 0 1-8.27 8.274"/></svg><svg viewBox="0 0 128 128" width="128" height="128" id="Linkedin" x="398.4" xmlns="http://www.w3.org/2000/svg"><path fill="#262626" d="M0 0h128v128H0z"/><g fill="#FFF"><path d="M29.075 51.747h14.869V99.54H29.075V51.747zm7.439-23.757c4.751 0 8.609 3.859 8.609 8.613 0 4.755-3.858 8.614-8.61 8.614a8.61 8.61 0 0 1-8.616-8.614 8.61 8.61 0 0 1 8.617-8.613M53.262 51.747H67.5v6.534h.204c1.98-3.758 6.827-7.72 14.054-7.72 15.039 0 17.818 9.896 17.818 22.767V99.54H84.725V76.298c0-5.542-.096-12.672-7.72-12.672-7.728 0-8.907 6.04-8.907 12.275V99.54H53.262V51.747z"/></g></svg><svg viewBox="0 0 128 128" width="128" height="128" id="Pinterest" x="398.4" y="128" xmlns="http://www.w3.org/2000/svg"><path fill="#262626" d="M0 0h128v128H0z"/><path fill="#FFF" d="M91.745 51.745c0 16.155-8.975 28.22-22.215 28.22-4.444 0-8.625-2.405-10.06-5.135 0 0-2.39 9.49-2.895 11.32-1.78 6.465-7.025 12.94-7.43 13.475-.285.365-.915.25-.98-.234-.115-.826-1.45-8.99.125-15.65.79-3.34 5.295-22.436 5.295-22.436s-1.315-2.63-1.315-6.515c0-6.103 3.54-10.657 7.94-10.657 3.745 0 5.556 2.81 5.556 6.18 0 3.767-2.396 9.397-3.636 14.612-1.035 4.37 2.19 7.93 6.5 7.93 7.8 0 13.05-10.02 13.05-21.89 0-9.023-6.074-15.78-17.13-15.78-12.485 0-20.27 9.315-20.27 19.72 0 3.585 1.06 6.117 2.715 8.072.76.9.87 1.263.595 2.298-.205.76-.65 2.58-.845 3.305-.27 1.04-1.115 1.415-2.06 1.03-5.75-2.35-8.43-8.65-8.43-15.73 0-11.697 9.865-25.72 29.425-25.72 15.725 0 26.065 11.373 26.065 23.585z"/></svg><svg viewBox="0 0 128 128" width="128" height="128" id="Reddit" y="315.53" xmlns="http://www.w3.org/2000/svg"><path fill="#262626" d="M0 0h128v128H0z"/><g fill="#FFF"><path d="M58.74 50.515a4.472 4.472 0 0 0-4.467-4.467 4.47 4.47 0 0 0-4.464 4.467 4.47 4.47 0 0 0 4.464 4.465 4.471 4.471 0 0 0 4.467-4.465zM73.722 46.046a4.473 4.473 0 0 0-4.468 4.469 4.472 4.472 0 0 0 4.468 4.467 4.473 4.473 0 0 0 4.47-4.467 4.474 4.474 0 0 0-4.47-4.469zM72.66 61.446C70.974 63.13 68.116 63.95 64 63.95c-4.118 0-6.974-.82-8.658-2.503a1.24 1.24 0 1 0-1.754 1.754c2.173 2.173 5.602 3.23 10.412 3.23 4.808 0 8.238-1.057 10.414-3.23a1.24 1.24 0 1 0-1.753-1.755z"/><path d="M96.259 45.649c0-4.045-3.29-7.335-7.334-7.335-1.866 0-3.57.703-4.865 1.855-4.976-3.205-11.41-5.08-18.298-5.354l3.78-11.954 10.284 2.42a6.049 6.049 0 0 0 6.041 6.008 6.053 6.053 0 0 0 6.047-6.044 6.053 6.053 0 0 0-6.047-6.045 6.052 6.052 0 0 0-5.547 3.65l-11.329-2.667a1.24 1.24 0 0 0-1.468.833l-4.356 13.773c-7.237.135-14.03 2.03-19.227 5.38a7.298 7.298 0 0 0-4.865-1.855c-4.044 0-7.335 3.29-7.335 7.335a7.335 7.335 0 0 0 3.582 6.297c-.11.687-.166 1.383-.166 2.084 0 5.245 3.071 10.137 8.648 13.778 1.774 1.158 3.74 2.141 5.846 2.946-4.112 1.96-7.023 6.732-7.023 12.295 0 6.284 3.715 11.556 8.68 12.909.387 1.21.818 2.361 1.288 3.446a9.539 9.539 0 0 0-.693-.028c-4.464 0-8.094 3.049-8.094 6.796 0 .56.098 1.14.303 1.77a1.24 1.24 0 0 0 1.18.858h37.234c.544 0 1.024-.353 1.185-.871.202-.65.296-1.207.296-1.757 0-3.747-3.633-6.796-8.099-6.796-.167 0-.333.005-.497.014.468-1.08.897-2.228 1.282-3.431 4.965-1.353 8.68-6.626 8.68-12.91 0-5.563-2.911-10.335-7.023-12.296 2.105-.804 4.072-1.788 5.845-2.945 5.577-3.64 8.649-8.533 8.649-13.778 0-.701-.057-1.397-.165-2.084a7.336 7.336 0 0 0 3.58-6.297zm-6.826-20.404c0 1.964-1.6 3.563-3.566 3.563a3.566 3.566 0 0 1-3.561-3.563 3.567 3.567 0 0 1 3.561-3.564c1.966 0 3.566 1.599 3.566 3.564zm-7.908 80.927c0 .048-.002.097-.005.147H71.01c1.117-1.153 2.145-2.576 3.066-4.22a7.093 7.093 0 0 1 1.831-.242c3.098 0 5.618 1.936 5.618 4.315zm-29.623-4.315c.725 0 1.417.107 2.053.3.913 1.62 1.929 3.023 3.032 4.162H46.293a2.446 2.446 0 0 1-.005-.147c0-2.379 2.519-4.315 5.614-4.315zm15.167 4.462h-6.141c-5.516-3.157-9.49-14.165-9.49-26.407 0-2.892.222-5.694.627-8.335 3.699 1.117 7.749 1.708 11.934 1.708s8.235-.592 11.937-1.709a55.26 55.26 0 0 1 .625 8.336c0 12.241-3.975 23.25-9.492 26.407zM49.257 73.883a60.622 60.622 0 0 0-.3 6.03c0 4.65.54 9.099 1.513 13.073-3.146-1.625-5.362-5.465-5.362-9.937 0-3.871 1.663-7.268 4.149-9.166zm28.272 19.104c.974-3.975 1.513-8.424 1.513-13.075 0-2.072-.105-4.086-.3-6.03 2.487 1.898 4.15 5.296 4.15 9.167 0 4.471-2.217 8.313-5.363 9.938zM64 70.805c-14.536 0-26.361-7.525-26.361-16.775 0-9.249 11.825-16.773 26.361-16.773 14.536 0 26.363 7.524 26.363 16.773 0 9.25-11.827 16.775-26.363 16.775zm-24.924-30.01c1.028 0 1.983.323 2.768.87-2.833 2.256-4.82 4.887-5.856 7.722a4.84 4.84 0 0 1-1.765-3.738 4.86 4.86 0 0 1 4.853-4.854zm47.081.871a4.816 4.816 0 0 1 2.769-.871 4.86 4.86 0 0 1 4.853 4.854c0 1.504-.69 2.848-1.766 3.738-1.036-2.835-3.023-5.465-5.856-7.72z"/></g></svg><svg viewBox="0 0 128 128" width="128" height="128" id="Snapchat" x="128" y="315.53" xmlns="http://www.w3.org/2000/svg"><path fill="#262626" d="M0 0h128v128H0z"/><path fill="#FFF" d="M64.443 96.942c-.18 0-.358-.004-.536-.013a4.549 4.549 0 0 1-.35.013c-4.159 0-6.828-1.886-9.409-3.71-1.782-1.26-3.463-2.449-5.445-2.779-.967-.16-1.93-.241-2.86-.241-1.675 0-2.997.259-3.962.447-.586.115-1.092.213-1.477.213-.401 0-.837-.086-1.026-.732a23.48 23.48 0 0 1-.398-1.627c-.294-1.35-.503-2.181-1.07-2.268-6.595-1.018-8.482-2.408-8.903-3.393a1.264 1.264 0 0 1-.102-.422.743.743 0 0 1 .621-.775c10.139-1.67 14.686-12.032 14.874-12.471l.016-.036c.621-1.258.742-2.35.363-3.245-.696-1.64-2.966-2.36-4.468-2.837-.367-.116-.715-.226-.99-.335-2.998-1.184-3.247-2.4-3.13-3.02.202-1.057 1.614-1.793 2.755-1.793.313 0 .59.056.82.163 1.35.632 2.564.953 3.613.953 1.448 0 2.081-.61 2.158-.69-.037-.685-.082-1.402-.129-2.142-.303-4.793-.677-10.749.84-14.149 4.545-10.191 14.184-10.983 17.03-10.983l1.247-.012h.168c2.853 0 12.512.792 17.06 10.989 1.517 3.401 1.141 9.363.84 14.153l-.013.208c-.042.667-.083 1.315-.116 1.936.072.073.654.633 1.968.684.999-.038 2.146-.357 3.405-.947.37-.171.78-.208 1.057-.208.426 0 .859.083 1.217.232l.022.01c1.018.36 1.685 1.073 1.7 1.82.013.702-.523 1.758-3.153 2.796-.273.108-.621.219-.99.335-1.504.477-3.772 1.198-4.467 2.837-.381.895-.26 1.986.361 3.243.006.012.012.024.017.038.188.439 4.731 10.798 14.875 12.47a.744.744 0 0 1 .62.775 1.255 1.255 0 0 1-.103.423c-.419.98-2.305 2.367-8.902 3.386-.54.083-.748.785-1.07 2.258a23.4 23.4 0 0 1-.398 1.616c-.14.48-.44.705-.944.705h-.082c-.35 0-.847-.062-1.477-.185-1.116-.219-2.369-.42-3.962-.42-.93 0-1.893.081-2.861.241-1.98.33-3.66 1.517-5.439 2.775-2.586 1.828-5.255 3.714-9.415 3.714z"/></svg><svg viewBox="0 0 128 128" width="128" height="128" id="Stumbleupon" x="256" y="315.53" xmlns="http://www.w3.org/2000/svg"><path fill="#262626" d="M0 0h128v128H0z"/><path fill="#FFF" d="M83.823 90.872c-8.821 0-16.563-6.963-16.619-15.573V64.24l5.497 4.215 6.25-4.483v11.506c0 2.036 2.748 3.858 4.839 3.858 2.096 0 4.098-1.822 4.098-3.858V63.883H99.84V75.15c0 8.702-7.168 15.723-16.017 15.723zM64.002 49.203c-2.09 0-3.047 1.646-3.047 3.708V75.36c-.15 8.61-7.985 15.513-16.769 15.513-8.848 0-16.026-7.021-16.026-15.723V64.03h11.808v11c0 2.032 2.151 3.708 4.246 3.708 2.09 0 4.695-1.676 4.695-3.708V52.284c.294-8.431 6.637-15.157 15.27-15.157 8.7 0 14.473 6.784 14.739 15.245v4.992l-5.465 3.44-6.193-3.557V52.91c0-2.062-1.162-3.708-3.258-3.708z"/></svg><svg viewBox="0 0 128 128" width="128" height="128" id="Tumblr" x="384" y="315.53" xmlns="http://www.w3.org/2000/svg"><path fill="#262626" d="M0 0h128v128H0z"/><path fill="#FFF" d="M73.625 102.4c7.685 0 15.299-2.736 17.818-6.05l.504-.664-4.763-14.12a.32.32 0 0 0-.305-.218H76.238a.317.317 0 0 1-.311-.232c-.124-.47-.198-1.046-.21-1.758V62.091c0-.178.144-.321.322-.321h12.52a.322.322 0 0 0 .322-.322V43.782a.322.322 0 0 0-.322-.321H76.092a.32.32 0 0 1-.32-.321V25.92a.322.322 0 0 0-.323-.32H53.587a3.714 3.714 0 0 0-3.631 3.31c-1.092 8.887-5.168 14.22-12.829 16.78l-.855.285a.322.322 0 0 0-.22.304v15.17c0 .177.145.32.322.32h7.824v18.682c0 14.914 10.33 21.95 29.427 21.95zm14.643-7.209c-2.398 2.307-7.32 4.02-12.037 4.099-.178.003-.352.005-.528.005h-.002C60.186 99.294 56.046 87.45 56.046 80.45V58.945a.321.321 0 0 0-.321-.321h-7.503a.32.32 0 0 1-.321-.321v-9.797c0-.131.082-.248.204-.295 8.018-3.122 12.497-9.324 13.675-18.918.065-.533.505-.548.51-.548h10.015c.177 0 .321.144.321.321v17.22a.32.32 0 0 0 .321.32h12.467a.32.32 0 0 1 .32.322v11.375a.32.32 0 0 1-.32.321h-12.52a.32.32 0 0 0-.322.321v20.439c.075 4.602 2.301 6.935 6.62 6.935 1.74 0 3.734-.405 5.554-1.1a.317.317 0 0 1 .416.194l3.185 9.44c.04.12.012.252-.08.338z"/></svg><svg viewBox="0 0 128 128" width="128" height="128" id="TwitterBW" x="526.4" xmlns="http://www.w3.org/2000/svg"><path fill="#262626" d="M0 0h128v128H0z"/><path fill="#FFF" d="M99.84 41.77a29.377 29.377 0 0 1-8.446 2.315 14.751 14.751 0 0 0 6.465-8.136 29.445 29.445 0 0 1-9.338 3.569 14.686 14.686 0 0 0-10.734-4.644c-8.122 0-14.706 6.584-14.706 14.705 0 1.153.13 2.276.38 3.352-12.222-.614-23.058-6.468-30.31-15.366a14.635 14.635 0 0 0-1.992 7.394 14.7 14.7 0 0 0 6.542 12.24 14.643 14.643 0 0 1-6.66-1.84c-.002.062-.002.123-.002.186 0 7.125 5.07 13.068 11.797 14.42a14.734 14.734 0 0 1-6.642.252c1.872 5.842 7.303 10.094 13.738 10.213a29.506 29.506 0 0 1-18.264 6.295 29.91 29.91 0 0 1-3.508-.205 41.62 41.62 0 0 0 22.543 6.606c27.05 0 41.842-22.408 41.842-41.842 0-.637-.015-1.271-.043-1.902a29.865 29.865 0 0 0 7.338-7.612z"/></svg><svg viewBox="0 0 128 128" width="128" height="128" id="Vine" x="526.4" y="128" xmlns="http://www.w3.org/2000/svg"><path fill="#262626" d="M0 0h128v128H0z"/><path fill="#FFF" d="M90.546 64.38c-8.453 0-17.264-4.485-17.037-16.167.096-5.033 1.945-7.65 4.697-7.65 2.615 0 4.361 2.35 4.361 7.112 0 2.71-.726 5.677-1.261 7.432 0 0 2.605 4.546 9.728 3.153 1.512-3.36 2.334-7.71 2.334-11.524 0-10.265-5.232-16.236-14.828-16.236-9.861 0-15.633 7.582-15.633 17.58 0 9.9 4.631 18.404 12.266 22.273-3.211 6.422-7.295 12.079-11.555 16.344-7.728-9.345-14.715-21.81-17.582-46.135H34.632c5.27 40.512 20.969 53.41 25.119 55.89 2.348 1.41 4.371 1.341 6.518.134 3.369-1.918 13.49-12.035 19.1-23.889.921-.002 3.993-.045 5.032-.133"/></svg><svg viewBox="0 0 128 128" width="128" height="128" id="WhatsApp" y="59.53" xmlns="http://www.w3.org/2000/svg"><path fill="#262626" d="M0 0h128v128H0z"/><g fill="#FFF"><path d="M28.16 100.013l5.064-18.495a35.622 35.622 0 0 1-4.765-17.842c.008-19.679 16.018-35.689 35.69-35.689 9.548.004 18.51 3.721 25.247 10.468 6.739 6.745 10.448 15.712 10.444 25.25-.008 19.677-16.02 35.689-35.69 35.689 0 0 .001 0 0 0h-.015a35.652 35.652 0 0 1-17.055-4.345l-18.92 4.964zm19.796-11.425l1.084.643a29.622 29.622 0 0 0 15.098 4.135h.012c16.35 0 29.658-13.307 29.664-29.665.003-7.926-3.08-15.379-8.68-20.986-5.6-5.607-13.049-8.696-20.972-8.7-16.363 0-29.67 13.307-29.677 29.663a29.583 29.583 0 0 0 4.535 15.786l.706 1.123-2.996 10.946 11.226-2.945z"/><path fill-rule="evenodd" clip-rule="evenodd" d="M82.13 72.19c-.223-.372-.816-.594-1.708-1.042-.893-.446-5.277-2.603-6.094-2.9-.817-.298-1.412-.447-2.007.445-.594.894-2.303 2.903-2.823 3.497-.52.595-1.041.67-1.933.224-.891-.446-3.764-1.389-7.17-4.427-2.652-2.364-4.442-5.285-4.961-6.177-.52-.893-.056-1.375.39-1.82.402-.4.892-1.042 1.338-1.562.445-.52.594-.894.892-1.489.297-.594.148-1.116-.075-1.562-.223-.446-2.006-4.836-2.75-6.621-.723-1.738-1.459-1.503-2.005-1.531a36.387 36.387 0 0 0-1.71-.032c-.594 0-1.56.224-2.378 1.117-.818.892-3.121 3.05-3.121 7.439 0 4.39 3.195 8.63 3.641 9.225.446.595 6.288 9.603 15.235 13.465a51.182 51.182 0 0 0 5.084 1.88c2.135.678 4.08.582 5.616.353 1.714-.257 5.276-2.157 6.02-4.24.742-2.084.742-3.87.52-4.242z"/></g></svg><svg viewBox="0 0 128 128" width="128" height="128" id="Yelp" y="443.53" xmlns="http://www.w3.org/2000/svg"><path fill="#262626" d="M0 0h128v128H0z"/><g fill="#FFF"><path d="M38.082 62.669c-1.167 1.863-1.655 7.738-1.253 11.64.141 1.287.374 2.358.715 3.002.463.886 1.248 1.412 2.14 1.442.571.032.927-.065 11.685-3.524 0 0 4.782-1.527 4.807-1.538 1.188-.3 1.993-1.398 2.071-2.8.078-1.436-.668-2.703-1.89-3.16l-3.375-1.375c-11.564-4.77-12.08-4.958-12.666-4.965-.89-.035-1.685.417-2.234 1.278zM63.947 98.204c.188-.54.21-.916.24-12.222 0 0 .027-4.992.034-5.043.075-1.224-.715-2.335-2.015-2.837-1.336-.516-2.772-.196-3.582.806 0 0-2.356 2.802-2.365 2.802-8.106 9.515-8.44 9.954-8.635 10.518a2.222 2.222 0 0 0-.13 1.035c.048.508.276 1.006.656 1.467 1.874 2.239 10.886 5.55 13.762 5.062 1.004-.186 1.724-.745 2.035-1.588zM82.216 94.269c2.718-1.079 8.646-8.62 9.06-11.52.145-1.01-.17-1.878-.866-2.434-.457-.342-.806-.476-11.556-4.003 0 0-4.722-1.56-4.778-1.592-1.138-.44-2.441-.033-3.322 1.053-.908 1.109-1.047 2.57-.321 3.677l1.897 3.088C78.715 92.91 79.202 93.641 79.664 94c.711.557 1.615.65 2.552.269zM76.666 67.58c12.22-2.96 12.691-3.117 13.175-3.429.741-.502 1.111-1.334 1.048-2.351 0-.035.007-.069 0-.106-.315-2.997-5.574-10.807-8.163-12.072-.917-.44-1.84-.407-2.597.102-.477.308-.819.77-7.361 9.718 0 0-2.961 4.03-2.996 4.07-.778.948-.787 2.306-.032 3.465.791 1.21 2.124 1.8 3.35 1.46 0 0-.053.084-.067.103.603-.23 1.682-.494 3.643-.96zM64.393 57.491c-.21-4.843-1.663-26.409-1.838-27.407-.25-.91-.95-1.553-1.971-1.81-3.116-.774-15.04 2.569-17.252 4.846-.71.742-.973 1.654-.756 2.46.343.716 15.12 23.957 15.12 23.957 2.184 3.542 3.967 2.996 4.549 2.809.58-.175 2.35-.728 2.148-4.855z"/></g></svg><svg viewBox="0 0 128 128" width="128" height="128" id="YouTubeBW" x="128" y="443.53" xmlns="http://www.w3.org/2000/svg"><path fill="#262626" d="M0 0h128v128H0z"/><path fill="#FFF" d="M99.84 78.336c0 5.632-4.609 10.24-10.24 10.24H38.4c-5.632 0-10.24-4.608-10.24-10.24V49.664c0-5.632 4.608-10.24 10.24-10.24h51.2c5.631 0 10.24 4.608 10.24 10.24v28.672zm-43.243-5.543l19.368-10.035-19.368-10.105v20.14z"/></svg><svg id="clear-view-escapes" data-name="Layer 1" width="142.4" height="59.53" viewBox="0 0 142.4 59.53" xmlns="http://www.w3.org/2000/svg"><defs><style>.ascls-1{fill:#fff}</style></defs><title>clear-view-escapes</title><path class="ascls-1" d="M19.5 27.52v4.75H5.93v5.51h12.45v4.39H5.93v6.3h13.85v4.75H.28v-25.7H19.5zM27.36 48.59a3 3 0 0 0 .88 1 3.78 3.78 0 0 0 1.24.56 5.84 5.84 0 0 0 1.46.18 5.46 5.46 0 0 0 1.13-.13 3.86 3.86 0 0 0 1.08-.4 2.47 2.47 0 0 0 .85-.75 1.89 1.89 0 0 0 .32-1.13 1.91 1.91 0 0 0-1.53-1.73 30.59 30.59 0 0 0-4.3-1.19q-1.12-.25-2.18-.59a7.38 7.38 0 0 1-1.89-.9 4.35 4.35 0 0 1-1.33-1.4 4 4 0 0 1-.5-2.07 5.6 5.6 0 0 1 .7-3 5.16 5.16 0 0 1 1.85-1.82 8.13 8.13 0 0 1 2.59-.94 15.92 15.92 0 0 1 3-.27 14.79 14.79 0 0 1 2.93.29 7.77 7.77 0 0 1 2.54 1 5.83 5.83 0 0 1 1.8 1.88 6.11 6.11 0 0 1 .89 2.82H34a2.24 2.24 0 0 0-1.12-2 5.1 5.1 0 0 0-2.37-.52 8.77 8.77 0 0 0-.94.05 3.15 3.15 0 0 0-.92.23 1.91 1.91 0 0 0-.7.52 1.38 1.38 0 0 0-.29.92 1.4 1.4 0 0 0 .5 1.12 3.88 3.88 0 0 0 1.31.7 16.38 16.38 0 0 0 1.85.49l2.18.49a21.57 21.57 0 0 1 2.18.61 7.2 7.2 0 0 1 1.89 1 4.63 4.63 0 0 1 1.33 1.48 4.34 4.34 0 0 1 .5 2.18 5.65 5.65 0 0 1-2.66 5.07A7.9 7.9 0 0 1 34 53.37a15.9 15.9 0 0 1-3.11.31 15.36 15.36 0 0 1-3.17-.32A8.35 8.35 0 0 1 25 52.27a6.17 6.17 0 0 1-2-2 6.25 6.25 0 0 1-.85-3.11H27a2.8 2.8 0 0 0 .36 1.43zM51.27 38a3.59 3.59 0 0 0-2.05.56A4.45 4.45 0 0 0 47.87 40a6.23 6.23 0 0 0-.74 1.94 10.54 10.54 0 0 0-.21 2.06 10.11 10.11 0 0 0 .21 2 6.32 6.32 0 0 0 .7 1.89 4 4 0 0 0 1.31 1.39 3.61 3.61 0 0 0 2 .54 3.75 3.75 0 0 0 2.83-1 4.86 4.86 0 0 0 1.24-2.75h4.93a8.43 8.43 0 0 1-2.88 5.65 9.29 9.29 0 0 1-6.08 1.94 10.16 10.16 0 0 1-3.83-.7 8.49 8.49 0 0 1-3-2 8.92 8.92 0 0 1-1.91-3 10.42 10.42 0 0 1-.68-3.83 12.4 12.4 0 0 1 .63-4 9 9 0 0 1 1.9-3.13 8.49 8.49 0 0 1 3-2.1 10.15 10.15 0 0 1 4-.76 11.63 11.63 0 0 1 3.19.43 8.49 8.49 0 0 1 2.73 1.31 6.79 6.79 0 0 1 2.83 5.31h-5A3.43 3.43 0 0 0 51.27 38zM62.82 40.33a5.93 5.93 0 0 1 .9-3 6.13 6.13 0 0 1 2-1.91 8.83 8.83 0 0 1 2.75-1 15.71 15.71 0 0 1 3.08-.31 20.85 20.85 0 0 1 2.84.2 8.72 8.72 0 0 1 2.63.77A5.18 5.18 0 0 1 79 36.67a4.47 4.47 0 0 1 .76 2.72v9.68a19.49 19.49 0 0 0 .14 2.41 4.34 4.34 0 0 0 .5 1.73h-5.19a6.77 6.77 0 0 1-.21-.88 7.44 7.44 0 0 1-.13-.92A6.64 6.64 0 0 1 72 53.17a11.55 11.55 0 0 1-3.38.5 9.1 9.1 0 0 1-2.48-.32 5.68 5.68 0 0 1-2-1 4.69 4.69 0 0 1-1.35-1.73 5.84 5.84 0 0 1-.49-2.48 5.42 5.42 0 0 1 .56-2.61 4.66 4.66 0 0 1 1.44-1.64 6.44 6.44 0 0 1 2-.92 21.75 21.75 0 0 1 2.29-.49q1.15-.18 2.27-.29a13.74 13.74 0 0 0 2-.32 3.43 3.43 0 0 0 1.37-.63 1.38 1.38 0 0 0 .4-1.24 2.72 2.72 0 0 0-.27-1.31 2 2 0 0 0-.72-.69 2.86 2.86 0 0 0-1-.36 8.61 8.61 0 0 0-1.28-.09 3.88 3.88 0 0 0-2.37.65 2.89 2.89 0 0 0-1 2.16h-5.17zm11.8 3.78a2.28 2.28 0 0 1-.81.45 8.28 8.28 0 0 1-1 .27c-.41.07-.81.17-1.2.17s-.82.11-1.22.18a9.24 9.24 0 0 0-1.13.29 3.34 3.34 0 0 0-1 .49 2.3 2.3 0 0 0-.67.77 2.49 2.49 0 0 0-.25 1.19 2.4 2.4 0 0 0 .25 1.15 1.93 1.93 0 0 0 .68.74 2.9 2.9 0 0 0 1 .38 6.48 6.48 0 0 0 1.19.11 4.51 4.51 0 0 0 2.34-.5 3.36 3.36 0 0 0 1.22-1.21 3.87 3.87 0 0 0 .49-1.42 10.06 10.06 0 0 0 .12-1.17v-1.89zM88.56 34.6V37h.07A5.62 5.62 0 0 1 91 34.78a7.29 7.29 0 0 1 3.17-.68 8.07 8.07 0 0 1 3.78.83 7.82 7.82 0 0 1 2.63 2.2 9.31 9.31 0 0 1 1.55 3.19 14.19 14.19 0 0 1 .5 3.8 12.82 12.82 0 0 1-.5 3.6 9.18 9.18 0 0 1-1.53 3.06 7.58 7.58 0 0 1-2.6 2.11 7.69 7.69 0 0 1-3.58.79 7.23 7.23 0 0 1-3.18-.7 6 6 0 0 1-2.39-2.07h-.04v8.82H83.7V34.6h4.86zm6.64 14.76A4.09 4.09 0 0 0 96.56 48a5.43 5.43 0 0 0 .74-1.89 11.19 11.19 0 0 0 .22-2.2 10.32 10.32 0 0 0-.23-2.2 5.86 5.86 0 0 0-.77-1.92 4.33 4.33 0 0 0-1.39-1.37 3.87 3.87 0 0 0-2.08-.42 3.94 3.94 0 0 0-2.11.52 4.22 4.22 0 0 0-1.37 1.35 5.6 5.6 0 0 0-.74 1.91 11.3 11.3 0 0 0-.2 2.22 10.31 10.31 0 0 0 .23 2.2 5.69 5.69 0 0 0 .76 1.8 4.36 4.36 0 0 0 5.58 1.36zM111.15 48.75a5.24 5.24 0 0 0 6 .34 3.21 3.21 0 0 0 1.37-1.64H123a8.54 8.54 0 0 1-3.31 4.79 9.75 9.75 0 0 1-5.4 1.44 10.6 10.6 0 0 1-4-.7 8.22 8.22 0 0 1-3-2 9 9 0 0 1-1.89-3.09 11.34 11.34 0 0 1-.67-4 10.84 10.84 0 0 1 .68-3.89 9 9 0 0 1 4.95-5.18 9.63 9.63 0 0 1 3.87-.76 8.84 8.84 0 0 1 4.14.92 8.26 8.26 0 0 1 2.9 2.46A10.14 10.14 0 0 1 123 41a13.14 13.14 0 0 1 .36 4.14H109.9a5.16 5.16 0 0 0 1.25 3.61zm5.78-9.75a3.59 3.59 0 0 0-2.79-1 4.45 4.45 0 0 0-2 .41 3.89 3.89 0 0 0-1.3 1 3.77 3.77 0 0 0-.68 1.3 5.83 5.83 0 0 0-.23 1.22h8.31a5.91 5.91 0 0 0-1.31-2.93zM130.64 48.59a3 3 0 0 0 .88 1 3.78 3.78 0 0 0 1.24.56 5.83 5.83 0 0 0 1.46.18 5.46 5.46 0 0 0 1.13-.13 3.86 3.86 0 0 0 1.08-.4 2.47 2.47 0 0 0 .81-.72 1.89 1.89 0 0 0 .32-1.13 1.91 1.91 0 0 0-1.56-1.76 30.55 30.55 0 0 0-4.22-1.19q-1.11-.25-2.18-.59a7.39 7.39 0 0 1-1.89-.9 4.36 4.36 0 0 1-1.33-1.4 4 4 0 0 1-.5-2.07 5.6 5.6 0 0 1 .7-3 5.18 5.18 0 0 1 1.85-1.82 8.13 8.13 0 0 1 2.59-.94 15.91 15.91 0 0 1 3-.27 14.79 14.79 0 0 1 2.93.29 7.77 7.77 0 0 1 2.54 1 5.84 5.84 0 0 1 1.85 1.82 6.11 6.11 0 0 1 .88 2.86h-4.86a2.24 2.24 0 0 0-1.12-2 5.1 5.1 0 0 0-2.37-.52 8.77 8.77 0 0 0-.94.05 3.15 3.15 0 0 0-.92.23 1.9 1.9 0 0 0-.7.52 1.38 1.38 0 0 0-.29.92 1.4 1.4 0 0 0 .5 1.12 3.87 3.87 0 0 0 1.31.7 16.33 16.33 0 0 0 1.85.49l2.1.51a21.57 21.57 0 0 1 2.18.61 7.18 7.18 0 0 1 1.89 1 4.63 4.63 0 0 1 1.33 1.48 4.33 4.33 0 0 1 .5 2.18 5.65 5.65 0 0 1-2.68 5.04 7.89 7.89 0 0 1-2.72 1.06 15.9 15.9 0 0 1-3.11.31 15.35 15.35 0 0 1-3.17-.32 8.35 8.35 0 0 1-2.75-1.08 6.18 6.18 0 0 1-2-2 6.25 6.25 0 0 1-.85-3.11h4.86a2.8 2.8 0 0 0 .38 1.42zM23.64 6.29a6.36 6.36 0 0 0-.55-1.43 4 4 0 0 0-.9-1.12A4 4 0 0 0 20.9 3a5.11 5.11 0 0 0-1.71-.26 5 5 0 0 0-2.46.58A4.84 4.84 0 0 0 15 4.85a6.93 6.93 0 0 0-1 2.19 10.16 10.16 0 0 0 0 5 6.92 6.92 0 0 0 1 2.19 4.83 4.83 0 0 0 1.69 1.54 5 5 0 0 0 2.46.57A4.44 4.44 0 0 0 21 16a4.12 4.12 0 0 0 1.38-1 4.71 4.71 0 0 0 .9-1.49 7.13 7.13 0 0 0 .43-1.83h3.05a8.48 8.48 0 0 1-.69 2.93 7.17 7.17 0 0 1-1.59 2.29 7 7 0 0 1-2.35 1.49 8.14 8.14 0 0 1-3 .53 8.43 8.43 0 0 1-3.59-.74 7.88 7.88 0 0 1-2.69-2 9 9 0 0 1-1.69-3 11 11 0 0 1-.59-3.63 11 11 0 0 1 .59-3.6 9 9 0 0 1 1.69-3 8 8 0 0 1 2.69-2 8.29 8.29 0 0 1 3.65-.76A9.46 9.46 0 0 1 22 .6a7.31 7.31 0 0 1 2.34 1.2A6.23 6.23 0 0 1 26 3.72a6.66 6.66 0 0 1 .78 2.58h-3.14zM29.31.62h2.85v17.85h-2.85V.62zM37.49 12.74a5 5 0 0 0 .21 1.45 3.57 3.57 0 0 0 .64 1.23 3.06 3.06 0 0 0 1.08.84 3.54 3.54 0 0 0 1.55.31A3.42 3.42 0 0 0 43 16a3.17 3.17 0 0 0 1.14-1.61h2.7a5.36 5.36 0 0 1-2.1 3.26 5.71 5.71 0 0 1-1.74.85 7 7 0 0 1-2 .29 6.85 6.85 0 0 1-2.7-.5 5.58 5.58 0 0 1-2-1.4 5.93 5.93 0 0 1-1.3-2.12 8.74 8.74 0 0 1-.36-2.77 7.79 7.79 0 0 1 .44-2.61 6.68 6.68 0 0 1 1.25-2.18 5.86 5.86 0 0 1 4.56-2 5.8 5.8 0 0 1 2.74.64 6 6 0 0 1 2 1.69 6.84 6.84 0 0 1 1.17 2.39 7.42 7.42 0 0 1 .2 2.81h-9.5zm6.65-1.88a4.61 4.61 0 0 0-.29-1.3 3.47 3.47 0 0 0-.65-1.09 3.23 3.23 0 0 0-1-.75 3 3 0 0 0-1.31-.29 3.42 3.42 0 0 0-1.36.26 3.11 3.11 0 0 0-1.05.73 3.59 3.59 0 0 0-.7 1.09 3.78 3.78 0 0 0-.29 1.35h6.65zM60 15.59a1.51 1.51 0 0 0 .14.75.58.58 0 0 0 .54.23H61a1.85 1.85 0 0 0 .4 0v2l-.4.04-.49.11-.5.08h-.43a2.75 2.75 0 0 1-1.45-.35 1.74 1.74 0 0 1-.75-1.23 5 5 0 0 1-2.09 1.2 8.22 8.22 0 0 1-2.39.38 5.86 5.86 0 0 1-1.68-.24 4.38 4.38 0 0 1-1.41-.7 3.35 3.35 0 0 1-1-1.18 3.62 3.62 0 0 1-.35-1.68 3.84 3.84 0 0 1 .44-2 3.24 3.24 0 0 1 1.15-1.18 5.21 5.21 0 0 1 1.6-.61q.89-.19 1.79-.29a14.67 14.67 0 0 1 1.48-.21 6.86 6.86 0 0 0 1.24-.21 1.9 1.9 0 0 0 .84-.37 1.27 1.27 0 0 0 .31-.94 1.46 1.46 0 0 0-.26-.9 1.77 1.77 0 0 0-.65-.54 2.82 2.82 0 0 0-.86-.25 6.94 6.94 0 0 0-.9-.06 3.58 3.58 0 0 0-2 .5 2 2 0 0 0-.87 1.55h-2.83a4.29 4.29 0 0 1 .6-2.08 4.14 4.14 0 0 1 1.34-1.33 5.48 5.48 0 0 1 1.84-.7 10.94 10.94 0 0 1 2.1-.2 8.85 8.85 0 0 1 1.88.2 5.34 5.34 0 0 1 1.65.62 3.61 3.61 0 0 1 1.19 1.16A3.19 3.19 0 0 1 60 8.94v6.65zM57.14 12a3.45 3.45 0 0 1-1.6.51q-1 .09-1.9.26a6.12 6.12 0 0 0-.87.21 2.63 2.63 0 0 0-.75.38 1.65 1.65 0 0 0-.51.63 2.14 2.14 0 0 0-.19.94 1.19 1.19 0 0 0 .27.8 2 2 0 0 0 .66.51 3.08 3.08 0 0 0 .85.26 5.3 5.3 0 0 0 .84.07 4.6 4.6 0 0 0 1-.12A3.4 3.4 0 0 0 56 16a2.73 2.73 0 0 0 .81-.76 1.93 1.93 0 0 0 .33-1.14V12zM63.06 5.54h2.68V8h.05a2.88 2.88 0 0 1 .49-1 4.73 4.73 0 0 1 .88-.91 4.4 4.4 0 0 1 1.14-.66 3.41 3.41 0 0 1 1.28-.25 6.21 6.21 0 0 1 .69 0h.39V8L70 7.93a5.06 5.06 0 0 0-.61 0 3.28 3.28 0 0 0-1.36.29 3.13 3.13 0 0 0-1.09.78 4.16 4.16 0 0 0-.75 1.39 6 6 0 0 0-.27 1.9v6.15h-2.86V5.54zM77.19.62h3.25l4.48 14.13H85L89.54.62h3.17l-6.1 17.85h-3.47zM94.42.62h2.85v2.7h-2.85V.62zm0 4.93h2.85v12.92h-2.85V5.54zM102.59 12.74a5 5 0 0 0 .21 1.45 3.57 3.57 0 0 0 .64 1.23 3.06 3.06 0 0 0 1.08.84 3.54 3.54 0 0 0 1.55.31 3.42 3.42 0 0 0 2-.54 3.18 3.18 0 0 0 1.14-1.61h2.7a5.36 5.36 0 0 1-2.1 3.26 5.71 5.71 0 0 1-1.74.85 7 7 0 0 1-2 .29 6.85 6.85 0 0 1-2.7-.5 5.58 5.58 0 0 1-2-1.4 5.93 5.93 0 0 1-1.22-2.15 8.73 8.73 0 0 1-.41-2.77 7.77 7.77 0 0 1 .44-2.61 6.69 6.69 0 0 1 1.25-2.18 5.86 5.86 0 0 1 4.56-2 5.79 5.79 0 0 1 2.74.64 6 6 0 0 1 2 1.69 6.85 6.85 0 0 1 1.16 2.41 7.42 7.42 0 0 1 .19 2.81h-9.5zm6.65-1.88a4.6 4.6 0 0 0-.29-1.3 3.48 3.48 0 0 0-.65-1.09 3.22 3.22 0 0 0-1-.75 3 3 0 0 0-1.3-.28 3.43 3.43 0 0 0-1.36.26 3.12 3.12 0 0 0-1 .73 3.6 3.6 0 0 0-.7 1.09 3.8 3.8 0 0 0-.29 1.35h6.65zM113.1 5.54h3l2.53 9.65 2.42-9.65H124l2.33 9.65L129 5.54h2.9l-4 12.93h-2.93l-2.4-9.6-2.37 9.6h-3z" transform="translate(-.28 -.19)"/></svg><svg id="comment" data-name="Layer 1" width="64" height="64" viewBox="0 0 64 64" x="384" y="443.53" xmlns="http://www.w3.org/2000/svg"><defs><style>.atcls-1{fill:#2f5572}</style></defs><title>comment</title><path class="atcls-1" d="M.72.08A.67.67 0 0 0 0 .8v46.48a.72.72 0 0 0 .72.72H48l16 16V.72a.67.67 0 0 0-.72-.72H.8z"/></svg><svg id="facebook" data-name="Layer 1" width="21.23" height="42.01" viewBox="0 0 21.23 42.01" x="398.4" y="256" xmlns="http://www.w3.org/2000/svg"><defs><style>.aucls-1{fill:#fff}</style></defs><title>facebook</title><path class="aucls-1" d="M21.23.31V7H17.4a3.55 3.55 0 0 0-2.85.91 4.26 4.26 0 0 0-.74 2.72v4.77H21l-1 7.47h-6.19V42H6.27V22.85H0v-7.47h6.27V9.85q0-4.69 2.55-7.28A9 9 0 0 1 15.63 0a39.57 39.57 0 0 1 5.6.31z"/></svg><svg id="fire" data-name="Layer 1" width="56" height="64" viewBox="0 0 56 64" x="448" y="443.53" xmlns="http://www.w3.org/2000/svg"><defs><style>.avcls-1{fill:#d4953d}</style></defs><title>Untitled-2</title><path class="avcls-1" d="M16 0C24 16 0 24 0 40s16 24 16 24C8.16 48.16 32 40 32 24S16 0 16 0zm24 24c8 16-16 24-16 40h24c3.2 0 8-4 8-16 0-16-16-24-16-24z"/></svg><svg id="globe" data-name="Layer 1" width="64" height="64" viewBox="0 0 64 64" x="504" y="443.53" xmlns="http://www.w3.org/2000/svg"><defs><style>.awcls-1{fill:#d4953f}</style></defs><title>globe</title><path class="awcls-1" d="M32 0a32 32 0 1 0 32 32A32 32 0 0 0 32 0zm0 8a23.75 23.75 0 0 1 7.52 1.52c-1.68 1.6-3.6 3-3.28 4.48s5.52 1 5.52 4c0 2.16-3.36 2.8-1 5.28 2.8 2.8-5.12 7.84-5.28 11.52-.24 6.64 6.72 7.76 12.24 7.76 3.36 0 4.24 1.6 4 3.52a24.07 24.07 0 0 1-19.76 10 22.94 22.94 0 0 1-8.48-1.76c1.76-3.52-2.24-10.48-6-12.72-1.84-1.84-5.76-1.12-8-2a23.49 23.49 0 0 1-1.52-6.72 1.42 1.42 0 0 1 1.28-.72c1.52 0 3.6 3 4.72 2.72 1.4-.32-5.96-10.48-2.52-12.48 1.6-1 4.8 3.12 3.76-1.28-1-4.08 2.88-2.24 5.28-3.28 2.08-.88 3.6-3.28 1-4.72a8.55 8.55 0 0 1-1.76-1.52A23.75 23.75 0 0 1 32 8.08V8zm18.48 8.72A26.46 26.46 0 0 1 54 22.48v.24a11.78 11.78 0 0 1-1.76 1.76C50 26.72 49.68 22.8 48.72 22c-1-1-4.8.16-5.28-1-.56-1.48 4-3.4 7.04-4.28z"/></svg><svg id="instagram" data-name="Layer 1" width="42.01" height="42.01" viewBox="0 0 42.01 42.01" x="419.63" y="256" xmlns="http://www.w3.org/2000/svg"><defs><style>.axcls-1{fill:#fff}</style></defs><title>instagram</title><path class="axcls-1" d="M37.25 35.49V17.77h-3.69a11.77 11.77 0 0 1 .57 3.58 12.12 12.12 0 0 1-1.75 6.36 12.76 12.76 0 0 1-4.76 4.59 13.13 13.13 0 0 1-6.56 1.7 12.78 12.78 0 0 1-9.19-3.71 12 12 0 0 1-3.83-9 11.77 11.77 0 0 1 .49-3.56H4.68v17.76a1.63 1.63 0 0 0 1.6 1.67h29.3a1.63 1.63 0 0 0 1.17-.47 1.59 1.59 0 0 0 .5-1.2zm-7.77-14.57A7.75 7.75 0 0 0 27 15.14a8.28 8.28 0 0 0-6-2.4 8.25 8.25 0 0 0-5.91 2.39 7.75 7.75 0 0 0-2.47 5.78 7.75 7.75 0 0 0 2.47 5.79A8.25 8.25 0 0 0 21 29.1a8.28 8.28 0 0 0 6-2.4 7.75 7.75 0 0 0 2.48-5.78zm7.76-9.84V6.56a1.84 1.84 0 0 0-.54-1.31 1.8 1.8 0 0 0-1.31-.56h-4.78a1.8 1.8 0 0 0-1.31.56 1.84 1.84 0 0 0-.54 1.31v4.52A1.87 1.87 0 0 0 30.6 13h4.8a1.87 1.87 0 0 0 1.85-1.89zM42 5.39v31.23A5.41 5.41 0 0 1 36.62 42H5.39a5.19 5.19 0 0 1-3.8-1.59A5.19 5.19 0 0 1 0 36.62V5.39a5.19 5.19 0 0 1 1.59-3.8A5.19 5.19 0 0 1 5.39 0h31.23a5.19 5.19 0 0 1 3.8 1.59A5.19 5.19 0 0 1 42 5.39z"/></svg><svg id="mail" data-name="Layer 1" width="64" height="48" viewBox="0 0 64 48" x="526.4" y="384" xmlns="http://www.w3.org/2000/svg"><defs><style>.aycls-1{fill:#2f5572}</style></defs><title>mail</title><path class="aycls-1" d="M0 0v8l32 16L64 8V0H0zm0 16v32h64V16L32 32z"/></svg><svg id="rain" data-name="Layer 1" width="64" height="64" viewBox="0 0 64 64" x="448" y="507.53" xmlns="http://www.w3.org/2000/svg"><defs><style>.azcls-1{fill:#d4953f}</style></defs><title>rain</title><path class="azcls-1" d="M36 0a20.42 20.42 0 0 0-20 16A16 16 0 0 0 0 32a15.4 15.4 0 0 0 4.27 10.72A11.88 11.88 0 0 1 12 40a10.51 10.51 0 0 1 4.47 1A12 12 0 0 1 28 32a12.06 12.06 0 0 1 11.51 9A11.84 11.84 0 0 1 44 40a11.94 11.94 0 0 1 11 7.52A12.07 12.07 0 0 0 64 36c0-5.2-3.36-10.32-8-12v-4A20 20 0 0 0 36 0zm-9.27 40A4 4 0 0 0 24 44v16a4 4 0 1 0 8 0V44a4 4 0 0 0-4.71-4h-.56zm-16 8A4 4 0 0 0 8 52v8a4 4 0 1 0 8 0v-8a4 4 0 0 0-4.71-4h-.54zm32 0A4 4 0 0 0 40 52v8a4 4 0 1 0 8 0v-8a4 4 0 0 0-4.71-4h-.58z" transform="translate(-.04)"/></svg><svg id="star" data-name="Layer 1" width="64" height="64" viewBox="0 0 64 64" x="384" y="507.53" xmlns="http://www.w3.org/2000/svg"><defs><style>.bacls-1{fill:#d4953f}</style></defs><title>star</title><path class="bacls-1" d="M32 0l-8 24H0l20 16-8 24 20-16 20 16-8-24 20-16H40z"/></svg><svg id="twitter" data-name="Layer 1" width="51.78" height="42.06" viewBox="0 0 51.78 42.06" x="590.4" y="384" xmlns="http://www.w3.org/2000/svg"><defs><style>.bbcls-1{fill:#fff}</style></defs><title>twitter</title><path class="bbcls-1" d="M51.78 5a22.23 22.23 0 0 1-5.32 5.52v1.38a30.15 30.15 0 0 1-1.25 8.53 30.81 30.81 0 0 1-3.76 8.13 32.1 32.1 0 0 1-6.06 6.92 27 27 0 0 1-8.48 4.8 31 31 0 0 1-10.62 1.8A29.47 29.47 0 0 1 0 37.29a22.71 22.71 0 0 0 2.56.13 20.78 20.78 0 0 0 13.17-4.53 10.63 10.63 0 0 1-9.92-7.36 13.45 13.45 0 0 0 2 .16 11 11 0 0 0 2.79-.36 10.44 10.44 0 0 1-6.09-3.67 10.25 10.25 0 0 1-2.41-6.75v-.13a10.52 10.52 0 0 0 4.8 1.34 10.6 10.6 0 0 1-3.45-3.78 10.34 10.34 0 0 1-1.28-5.07 10.4 10.4 0 0 1 1.45-5.33 30.08 30.08 0 0 0 9.71 7.83A29.57 29.57 0 0 0 25.53 13a11.79 11.79 0 0 1-.26-2.43 10.23 10.23 0 0 1 3-7.48 10.64 10.64 0 0 1 15 0l.21.22A20.81 20.81 0 0 0 50.33.8a10.3 10.3 0 0 1-4.67 5.85A21.14 21.14 0 0 0 51.78 5z"/></svg><svg id="wifi" data-name="Layer 1" width="60" height="64" viewBox="0 0 60 64" x="568" y="443.53" xmlns="http://www.w3.org/2000/svg"><defs><style>.bccls-1{fill:#d4953e}</style></defs><title>wifi</title><path class="bccls-1" d="M29.88 0A55.39 55.39 0 0 0 0 8.72l4.22 6.48a47.32 47.32 0 0 1 25.66-7.28 47.31 47.31 0 0 1 25.9 7.28L60 8.72A55.53 55.53 0 0 0 29.88 0zm0 24a31.08 31.08 0 0 0-17 5l4.22 6.72A23.09 23.09 0 0 1 29.8 32a24.17 24.17 0 0 1 13 3.76L47 29a32.37 32.37 0 0 0-17.2-5h.07zm0 24a8 8 0 1 0 8 8 8 8 0 0 0-8-8z"/></svg><svg id="youtube" data-name="Layer 1" width="34.75" height="42" viewBox="0 0 34.75 42" x="461.64" y="256" xmlns="http://www.w3.org/2000/svg"><defs><style>.bdcls-1{fill:#fff}</style></defs><title>youtube</title><path class="bdcls-1" d="M22.13 29.15v5q0 1.57-.91 1.57a1.5 1.5 0 0 1-1.06-.52v-7.11a1.5 1.5 0 0 1 1.06-.54q.91 0 .91 1.6zm7.92 0v1.08h-2.1v-1.06q0-1.59 1.06-1.59t1 1.59zM7.42 24h2.5v-2.14h-7.3v2.2h2.46V37.4h2.34V24zm6.75 13.4h2.09V25.82h-2.09v8.86a1.86 1.86 0 0 1-1.31 1 .48.48 0 0 1-.49-.47 6.52 6.52 0 0 1 0-.82v-8.57h-2.14V35a5.79 5.79 0 0 0 .19 1.71 1.26 1.26 0 0 0 1.36.87 3.43 3.43 0 0 0 2.39-1.43v1.25zm10.05-3.47v-4.6A8.33 8.33 0 0 0 24 27a1.63 1.63 0 0 0-1.67-1.31A2.82 2.82 0 0 0 20.16 27v-5.1h-2.08v15.5h2.09v-1.13a2.91 2.91 0 0 0 2.18 1.31A1.62 1.62 0 0 0 24 36.27a8.61 8.61 0 0 0 .22-2.35zm7.92-.24v-.3H30a11.6 11.6 0 0 1 0 1.43.9.9 0 0 1-.94.85q-1.08 0-1.08-1.61V32h4.19v-2.41a4.65 4.65 0 0 0-.66-2.72 3.2 3.2 0 0 0-5 0 4.52 4.52 0 0 0-.66 2.72v4.05a4.4 4.4 0 0 0 .66 2.72 3 3 0 0 0 2.49 1.2 2.9 2.9 0 0 0 3-2.51 10.31 10.31 0 0 0 .09-1.36zM17.89 12.3V7.38q0-1.61-1-1.61t-1 1.61v4.92q0 1.64 1 1.64t1-1.64zm16.85 17.6a40.6 40.6 0 0 1-.61 8.2 4.45 4.45 0 0 1-1.36 2.32 4.1 4.1 0 0 1-2.39 1.08 125.31 125.31 0 0 1-13 .49 125.31 125.31 0 0 1-13-.49A4.15 4.15 0 0 1 2 40.42 4.28 4.28 0 0 1 .63 38.1 39.76 39.76 0 0 1 0 29.9a40.6 40.6 0 0 1 .61-8.2A4.45 4.45 0 0 1 2 19.37a4.25 4.25 0 0 1 2.41-1.1q4.29-.47 13-.47t13 .47a4.4 4.4 0 0 1 3.75 3.42 39.76 39.76 0 0 1 .58 8.21zM11.35 0h2.39l-2.83 9.35v6.35H8.57V9.35a39.68 39.68 0 0 0-1.43-5Q6.27 2 5.61 0H8.1l1.67 6.16zM20 7.8v4.1a4.59 4.59 0 0 1-.66 2.76 2.88 2.88 0 0 1-2.49 1.19 2.9 2.9 0 0 1-2.46-1.19 4.68 4.68 0 0 1-.66-2.76V7.8a4.59 4.59 0 0 1 .66-2.74 2.9 2.9 0 0 1 2.46-1.19 2.88 2.88 0 0 1 2.49 1.19A4.59 4.59 0 0 1 20 7.8zM27.87 4v11.7h-2.13v-1.27a3.37 3.37 0 0 1-2.41 1.45A1.31 1.31 0 0 1 22 15a6 6 0 0 1-.19-1.76V4h2.13v8.6a6.14 6.14 0 0 0 0 .82.49.49 0 0 0 .47.52 1.87 1.87 0 0 0 1.31-1V4h2.16z"/></svg></svg>